<?xml version='1.0' encoding='utf-8'?>
<svg xmlns="http://www.w3.org/2000/svg" style="isolation:isolate" viewBox="798.786 588.393 221.214 221.214" width="221.214" height="221.214"><path d=" M 798.786 699 C 798.786 637.954 848.347 588.393 909.393 588.393 C 970.439 588.393 1020 637.954 1020 699 C 1020 760.046 970.439 809.607 909.393 809.607 C 848.347 809.607 798.786 760.046 798.786 699 Z " fill="rgb(255,65,65)"/><linearGradient id="_lgradient_0" x1="2.5740799563042374%" y1="26.72643441405799%" x2="119.68660646579683%" y2="113.58882612876155%"><stop offset="1.3043478260869565%" stop-opacity="1" style="stop-color:rgb(204,52,52)"/><stop offset="97.82608695652173%" stop-opacity="1" style="stop-color:rgb(255,65,65)"/></linearGradient><path d=" M 926.811 808.241 L 896 778 L 909 779 L 909.211 767.693 L 880 740 L 876.213 701.118 L 909.723 740.216 L 912 618 L 1017.314 723.314 C 1007.47 767.128 971.596 801.144 926.811 808.241 Z " fill="url(#_lgradient_0)"/><path d=" M 881.796 667.006 L 881.796 719.107 C 881.796 734.337 894.162 746.703 909.393 746.703 C 924.624 746.703 936.989 734.337 936.989 719.107 L 936.989 645.916 C 936.989 630.685 924.624 618.32 909.393 618.32 C 894.162 618.32 881.796 630.685 881.796 645.916 L 881.796 646.331 L 894.367 646.331 C 895.386 646.331 896.213 647.158 896.213 648.177 L 896.213 648.177 L 896.213 648.621 C 896.213 649.639 895.386 650.466 894.367 650.466 L 881.796 650.466 L 881.796 654.601 L 894.367 654.601 C 895.386 654.601 896.213 655.428 896.213 656.447 L 896.213 656.447 L 896.213 656.89 C 896.213 657.909 895.386 658.736 894.367 658.736 L 881.796 658.736 L 881.796 662.871 L 894.367 662.871 C 895.386 662.871 896.213 663.698 896.213 664.716 L 896.213 664.716 L 896.213 665.16 C 896.213 666.179 895.386 667.006 894.367 667.006 L 881.796 667.006 Z M 911.46 775.545 L 911.46 754.811 C 920.168 754.304 928.439 750.607 934.667 744.379 C 941.386 737.712 945.159 728.563 945.159 719.105 L 945.159 703.702 C 945.159 702.276 944.001 701.118 942.575 701.118 L 942.573 701.118 C 941.147 701.118 939.989 702.276 939.989 703.702 L 939.989 719.107 C 939.989 727.206 936.749 735.005 931.02 740.734 C 925.291 746.463 917.492 749.703 909.393 749.703 C 901.294 749.703 893.495 746.463 887.766 740.734 C 882.036 735.005 878.797 727.206 878.797 719.107 L 878.797 703.702 C 878.797 702.276 877.639 701.118 876.213 701.118 L 876.211 701.118 C 874.784 701.118 873.626 702.276 873.626 703.702 L 873.626 719.105 C 873.626 728.563 877.399 737.712 884.119 744.379 C 890.347 750.607 898.617 754.304 907.325 754.811 L 907.325 775.545 L 898.059 775.545 C 897.04 775.545 896.213 776.372 896.213 777.391 L 896.213 777.835 C 896.213 778.853 897.04 779.68 898.059 779.68 L 920.727 779.68 C 921.746 779.68 922.573 778.853 922.573 777.835 L 922.573 777.391 C 922.573 776.372 921.746 775.545 920.727 775.545 L 911.46 775.545 Z " fill-rule="evenodd" fill="rgb(255,255,255)"/></svg>